<?xml version="1.0" encoding="utf-8"?>
<!-- Generator: Adobe Illustrator 22.0.1, SVG Export Plug-In . SVG Version: 6.00 Build 0)  -->
<svg version="1.1" id="Layer_1" xmlns="http://www.w3.org/2000/svg" xmlns:xlink="http://www.w3.org/1999/xlink" x="0px" y="0px"
	 viewBox="0 0 127 83" style="enable-background:new 0 0 127 83;" xml:space="preserve">
<style type="text/css">
	.st0{enable-background:new    ;}
	.st1{fill:#5A287F;}
	.st2{fill:#58277D;}
	.st3{fill:#59277F;}
	.st4{fill:#57267B;}
	.st5{fill:#DDD11D;}
	.st6{fill:#D8CC1C;}
	.st7{fill:#DDD01D;}
	.st8{fill:#D6CA1C;}
	.st9{fill:#2496C7;}
	.st10{fill:#2393C2;}
	.st11{fill:#2496C6;}
	.st12{fill:#2391C0;}
	.st13{font-family:'LucidaSansUnicode';}
	.st14{font-size:1px;}
</style>
<g>
	<g>
		<g class="st0">
			<g>
				<polygon class="st1" points="63.9,46.8 70.2,43.1 123.1,73.8 116.8,77.5 				"/>
			</g>
			<g>
				<polygon class="st2" points="90.4,9.4 96.7,5.7 70.2,43.1 63.9,46.8 				"/>
			</g>
			<g>
				<polygon class="st3" points="90.4,4.5 96.8,0.8 126.8,78.4 120.5,82.1 				"/>
			</g>
			<g>
				<path class="st4" d="M90.4,4.5l30.1,77.7l-60.2-35L90.4,4.5z M90.4,9.4L63.9,46.8l52.9,30.7L90.4,9.4"/>
			</g>
		</g>
	</g>
</g>
<g>
	<g>
		<g class="st0">
			<g>
				<polygon class="st5" points="33.9,46.8 40.2,43.1 93.1,73.8 86.8,77.5 				"/>
			</g>
			<g>
				<polygon class="st6" points="60.4,9.4 66.8,5.7 40.2,43.1 33.9,46.8 				"/>
			</g>
			<g>
				<polygon class="st7" points="60.4,4.5 66.8,0.8 96.8,78.4 90.5,82.1 				"/>
			</g>
			<g>
				<path class="st8" d="M60.4,4.5l30.1,77.7l-60.2-35L60.4,4.5z M60.4,9.4L33.9,46.8l52.9,30.7L60.4,9.4"/>
			</g>
		</g>
	</g>
</g>
<g>
	<g>
		<g class="st0">
			<g>
				<polygon class="st9" points="3.9,46.8 10.2,43.1 63.1,73.8 56.8,77.5 				"/>
			</g>
			<g>
				<polygon class="st10" points="30.4,9.4 36.7,5.7 10.2,43.1 3.9,46.8 				"/>
			</g>
			<g>
				<polygon class="st11" points="30.4,4.5 36.8,0.8 66.8,78.4 60.5,82.1 				"/>
			</g>
			<g>
				<path class="st12" d="M30.4,4.5l30.1,77.7l-60.2-35L30.4,4.5z M30.4,9.4L3.9,46.8l52.9,30.7L30.4,9.4"/>
			</g>
		</g>
	</g>
</g>
<text transform="matrix(0.8698 0.4934 -0.4934 0.8698 44.1744 69.2521)" class="st13 st14">Eng.AbdelHady Anka</text>
</svg>
